<svg width="64" height="64" viewBox="0 0 64 64" fill="none" xmlns="http://www.w3.org/2000/svg">
<path fill-rule="evenodd" clip-rule="evenodd" d="M12.2505 1.57025C18.9707 0.523417 25.6772 0 32.3702 0C38.9236 0 45.4769 0.501825 52.0302 1.50547C57.3807 2.32492 61.5923 6.57423 62.439 12.0075C63.4797 18.6856 64 25.3637 64 32.0418C64 38.7044 63.4821 45.3671 62.4462 52.0297C61.5981 57.4844 57.3594 61.7445 51.9848 62.544C45.4596 63.5147 38.9214 64 32.3702 64C25.6786 64 18.9869 63.4936 12.2951 62.4809C7.0894 61.6931 2.9386 57.6527 1.93826 52.3994C0.646087 45.6135 0 38.8277 0 32.0418C0 25.2407 0.648991 18.4397 1.94697 11.6386C2.94541 6.40703 7.0692 2.37736 12.2505 1.57025Z" fill="white"/>
<path d="M44.5276 37.5706C43.3458 38.2439 42.0215 38.6311 40.6617 38.701L25.2932 38.7359C24.3375 38.6926 23.3914 38.5263 22.4785 38.2412C21.5879 37.9622 20.7381 37.5676 19.951 37.0674C18.3679 36.0616 17.0905 34.6447 16.2564 32.9695C16.1873 32.8439 16.1208 32.7167 16.0569 32.5878C15.5495 31.5624 15.2191 30.4592 15.0794 29.3246C14.94 28.1694 14.9844 26.9996 15.2107 25.8582C15.4393 24.706 15.8425 23.5952 16.4066 22.5637C16.9237 21.6102 17.5787 20.7376 18.3506 19.9737C19.0783 19.2561 19.9178 18.6602 20.8364 18.2092C20.9591 18.1474 21.0818 18.0882 21.2046 18.0302C22.1075 17.5995 23.0652 17.2937 24.0513 17.1211C24.963 16.9676 25.8935 16.96 26.8077 17.0985C27.6962 17.2429 28.5608 17.5072 29.3777 17.884C30.2065 18.2509 30.9943 18.7035 31.7281 19.2344C34.093 21.013 31.7482 23.6882 29.5673 22.2001C28.5744 21.5223 27.4778 20.9158 26.2745 20.7246C24.9559 20.5146 23.6519 20.8968 22.4817 21.4843L22.4608 21.4947C21.4146 22.001 20.4615 22.9171 19.7768 24.0774C19.4947 24.555 19.2637 25.0608 19.0877 25.5864C18.7719 26.5135 18.639 27.4926 18.6962 28.4699C18.7569 29.4401 19.0318 30.3851 19.5012 31.2376L19.5418 31.3145C20.6885 33.6389 23.094 35.0826 25.8186 35.0826L40.1272 35.0362V35.0178C40.9747 35.0187 41.8095 34.8126 42.5583 34.4175C43.3072 34.0224 43.9472 33.4504 44.4224 32.7517C44.8975 32.053 45.1932 31.249 45.2836 30.41C45.3739 29.571 45.2561 28.7228 44.9406 27.9397C44.6408 27.2037 44.1764 26.5456 43.5826 26.0153C42.8866 25.3926 42.0341 24.9692 41.1158 24.7902C40.1975 24.6112 39.2476 24.6833 38.3671 24.9988C36.7445 25.5803 35.5865 26.9282 35.1072 28.562C34.4279 30.877 31.0781 30.5426 31.3905 28.3665C31.5744 27.2038 32.0067 26.0938 32.658 25.1114C33.3684 24.0078 34.3152 23.0744 35.4304 22.3778C36.8742 21.4754 38.5493 21.0083 40.2538 21.0328C41.9583 21.0572 43.6193 21.5723 45.0362 22.5159C46.1374 23.2484 47.0619 24.2147 47.7432 25.3453C48.4427 26.5038 48.8628 27.808 48.9705 29.1555C49.108 30.8333 48.7633 32.5155 47.9766 34.0055C47.1899 35.4956 45.9937 36.7321 44.5276 37.5706Z" fill="#1666FF"/>
<path d="M38.3136 42.6553H26.3431C25.9733 42.6553 25.618 42.7977 25.3514 43.0527C25.0847 43.3078 24.9276 43.6556 24.9127 44.0234L24.9048 44.2168C24.8974 44.3997 24.9299 44.582 25.0001 44.7512C25.0702 44.9204 25.1763 45.0725 25.3111 45.197C25.4459 45.3214 25.6061 45.4154 25.7809 45.4723C25.9556 45.5292 26.1406 45.5478 26.3233 45.5268C27.9839 45.3446 29.6632 45.4295 31.2967 45.7783C32.8228 46.0924 33.6582 46.6907 34.3517 47.1874C35.1907 47.7882 35.8219 48.2402 37.2166 47.8603C39.7644 47.1663 39.4364 42.6553 38.3136 42.6553Z" fill="#1666FF"/>
</svg>
